# xmcd
#
# Track frame offsets: 
#        183
#        11778
#        24853
#        41533
#        60505
#        76933
#        90300
#        110873
#        121318
#        134425
#
# Disc length: 2013 seconds
#
# Revision: 2
# Processed by: cddbd v1.5.2PL0 Copyright (c) Steve Scherf et al.
# Submitted via: ExactAudioCopy v0.99pb4
#
DISCID=7607db0a
DTITLE=Garth Brooks - Garth Brooks
DYEAR=1989
DGENRE=Country
TTITLE0=Not Counting On You
TTITLE1=I've Got A Good Thing Going
TTITLE2=If Tomorrow Never Comes
TTITLE3=Everytime That It Rains
TTITLE4=Alabama Clay
TTITLE5=Much Too Young (To Feel This Damn Old)
TTITLE6=Cowboy Bill
TTITLE7=Nobody Gets Off In This Town
TTITLE8=I Know One
TTITLE9=The Dance
EXTD=
EXTT0=1st CD
EXTT1=1st CD
EXTT2=1st CD
EXTT3=1st CD
EXTT4=1st CD
EXTT5=1st CD
EXTT6=1st CD
EXTT7=1st CD
EXTT8=1st CD
EXTT9=1st CD
PLAYORDER=
